<?xml version="1.0" encoding="UTF-8"?>
<svg width="97px" height="97px" viewBox="0 0 97 97" version="1.1" xmlns="http://www.w3.org/2000/svg" xmlns:xlink="http://www.w3.org/1999/xlink">
    <!-- Generator: Sketch 47.1 (45422) - http://www.bohemiancoding.com/sketch -->
    <title> icon-15</title>
    <desc>Created with Sketch.</desc>
    <defs></defs>
    <g id="Page-1" stroke="none" stroke-width="1" fill="none" fill-rule="evenodd">
        <g id="Asset-1icons" transform="translate(-1646.000000, -843.000000)" fill-rule="nonzero">
            <g id="icon-15" transform="translate(1646.000000, 843.000000)">
                <path d="M36.23,30.9 C36.23,23.56 28.59,17.73 19.16,17.58 C9.73,17.58 1.94,23.42 1.94,30.76 C1.94,38.1 9.58,43.93 19.01,44.08 L19.01,51.27 L26.49,42.88 C32.19,40.62 36.23,36.13 36.23,30.9 Z" id="Shape" fill="#FFFFFF"></path>
                <path d="M65.58,15.48 C65.58,8.14 57.94,2.16 48.51,2.16 C39.08,2.16 31.29,8 31.29,15.16 C31.29,22.5 38.93,28.34 48.36,28.48 L48.36,35.67 L55.84,27.28 C61.53,25.2 65.43,20.71 65.58,15.48 Z" id="Shape" fill="#FFFFFF"></path>
                <path d="M94.77,28.35 C94.77,21.01 87.13,15.17 77.7,15.03 C68.27,14.89 60.48,20.87 60.48,28.03 C60.48,35.37 68.12,41.2 77.55,41.35 L77.55,48.54 L85.03,40.15 C90.73,38.09 94.77,33.59 94.77,28.35 Z" id="Shape" fill="#FFFFFF"></path>
                <path d="M90.73,17.88 C86.9791821,15.083191 82.4081791,13.6064054 77.73,13.68 L77.57,13.68 C73.9202175,13.6283017 70.3172602,14.5058128 67.1,16.23 C66.36,0.35 48.55,0.65 48.55,0.65 C38.97,0.65 30.28,6.19 29.84,15.18 C29.8799196,16.4989235 30.078003,17.8082882 30.43,19.08 C25.8,16.08 19.05,16.08 19.05,16.08 C8.86,16.21 0.48,22.66 0.48,30.73 C0.526002951,34.9108957 2.58013165,38.8144844 6,41.22 C9.35118703,43.708023 13.3538426,45.1673245 17.52,45.42 L17.52,55.16 L27.4,44.08 C33.69,41.68 37.87,36.6 37.87,31.08 C37.8541088,29.7457234 37.6001238,28.4250011 37.12,27.18 C40.0565094,28.8662873 43.3261797,29.8901924 46.7,30.18 L46.7,39.92 L56.58,28.84 C57.47,28.54 58.22,28.09 58.98,27.84 C58.09,28.73 60.48,43.11 76.05,43.26 L76.05,53 L85.95,41.93 C92.24,39.53 96.42,34.45 96.42,28.93 C96.3993694,24.5487233 94.2844733,20.4415876 90.73,17.88 L90.73,17.88 Z M25.6,41.53 L20.51,47.21 L20.51,42.58 C15.9859454,42.8417247 11.5044885,41.581425 7.78,39 C4.93,36.6 3.44,33.75 3.44,30.76 C3.44,24.33 10.44,19.24 19.16,19.24 C27.88,19.24 34.74,24.61 34.74,31.05 C33.83,39.14 25.6,41.53 25.6,41.53 Z M54.8,26 L49.71,31.68 L49.71,27 C49.55,27.59 39.83,26.55 36.98,23.41 C34.58,20.72 32.64,18.32 32.64,15.33 C32.64,8.9 39.64,3.81 48.36,3.81 C57.08,3.81 63.94,9.2 63.94,15.63 C63.63,20.87 60,24 54.8,26 Z M84.14,38.87 L79.05,44.57 L79.05,39.94 C79.05,39.94 63.33,40.83 61.98,28.12 C62.87,20.04 70.51,16.74 77.7,16.6 C86.7,16.76 92.82,21.85 93.28,28.42 C93,32.69 90.43,36.43 84.14,38.82 L84.14,38.87 Z" id="Shape" fill="#3687C6"></path>
                <rect id="Rectangle-path" fill="#3687C6" x="71.13" y="25.8" width="2.99" height="2.99"></rect>
                <rect id="Rectangle-path" fill="#3687C6" x="81.01" y="25.8" width="2.99" height="2.99"></rect>
                <rect id="Rectangle-path" fill="#3687C6" x="41.93" y="12.93" width="2.99" height="2.99"></rect>
                <rect id="Rectangle-path" fill="#3687C6" x="51.81" y="12.93" width="2.99" height="2.99"></rect>
                <rect id="Rectangle-path" fill="#3687C6" x="12.73" y="28.35" width="2.99" height="2.99"></rect>
                <rect id="Rectangle-path" fill="#3687C6" x="22.61" y="28.35" width="2.99" height="2.99"></rect>
                <circle id="Oval" fill="#FFFFFF" cx="81.74" cy="64.74" r="6.89"></circle>
                <circle id="Oval" fill="#FFFFFF" cx="48.36" cy="64.74" r="6.89"></circle>
                <circle id="Oval" fill="#FFFFFF" cx="14.98" cy="64.74" r="6.89"></circle>
                <path d="M81.74,76.56 C73.7198703,76.5710167 67.2210167,83.0698703 67.21,91.09 L67.21,96.48 L96.27,96.48 L96.27,91.09 C96.2644844,83.0675883 89.7624117,76.5655156 81.74,76.56 L81.74,76.56 Z M93.28,93.48 L70.22,93.48 L70.22,91.08 C70.5792177,84.9918136 75.6212254,80.2385278 81.72,80.2385278 C87.8187746,80.2385278 92.8607823,84.9918136 93.22,91.08 L93.22,93.48 L93.28,93.48 Z" id="Shape" fill="#3687C6"></path>
                <path d="M81.74,73.27 C86.3681462,73.27 90.12,69.5181462 90.12,64.89 C90.12,60.2618538 86.3681462,56.51 81.74,56.51 C77.1118538,56.51 73.36,60.2618538 73.36,64.89 C73.3573421,67.1133279 74.2393789,69.2463584 75.8115103,70.8184897 C77.3836416,72.3906211 79.5166721,73.2726579 81.74,73.27 Z M81.74,59.35 C84.7168148,59.35 87.13,61.7631852 87.13,64.74 C87.13,67.7168148 84.7168148,70.13 81.74,70.13 C78.7631852,70.13 76.35,67.7168148 76.35,64.74 C76.3168329,63.3005715 76.874049,61.9102486 77.8921488,60.8921488 C78.9102486,59.874049 80.3005715,59.3168329 81.74,59.35 Z" id="Shape" fill="#3687C6"></path>
                <path d="M48.36,73.27 C52.9868404,73.2644787 56.7336771,69.5101836 56.7299973,64.8833413 C56.7263176,60.256499 52.973514,56.5081684 48.3466706,56.5100066 C43.7198273,56.5118449 39.9700033,60.2631563 39.97,64.89 C40.024104,69.4994373 43.7505014,73.2213932 48.36,73.27 L48.36,73.27 Z M48.36,59.35 C51.3368148,59.35 53.75,61.7631852 53.75,64.74 C53.75,67.7168148 51.3368148,70.13 48.36,70.13 C45.3831852,70.13 42.97,67.7168148 42.97,64.74 C42.9646598,63.3088527 43.5308182,61.9347802 44.5427992,60.9227992 C45.5547802,59.9108182 46.9288527,59.3446598 48.36,59.35 Z" id="Shape" fill="#3687C6"></path>
                <path d="M48.36,76.56 C40.3398703,76.5710167 33.8410167,83.0698703 33.83,91.09 L33.83,96.48 L62.83,96.48 L62.83,91.09 C62.8567053,87.2386862 61.3427019,83.5365096 58.6249867,80.8075253 C55.9072714,78.078541 52.2113914,76.5492313 48.36,76.56 L48.36,76.56 Z M59.88,93.48 L36.88,93.48 L36.88,91.08 C37.2392177,84.9918136 42.2812254,80.2385278 48.38,80.2385278 C54.4787746,80.2385278 59.5207823,84.9918136 59.88,91.08 L59.88,93.48 Z" id="Shape" fill="#3687C6"></path>
                <path d="M15,73.27 C19.6268404,73.2644787 23.3736771,69.5101836 23.3699973,64.8833413 C23.3663176,60.256499 19.613514,56.5081684 14.9866706,56.5100066 C10.3598273,56.5118449 6.61000329,60.2631563 6.61,64.89 C6.65880185,69.5016702 10.3882749,73.2266981 15,73.27 Z M15,59.35 C17.9768148,59.35 20.39,61.7631852 20.39,64.74 C20.39,67.7168148 17.9768148,70.13 15,70.13 C12.0231852,70.13 9.61,67.7168148 9.61,64.74 C9.60465984,63.3088527 10.1708182,61.9347802 11.1827992,60.9227992 C12.1947802,59.9108182 13.5688527,59.3446598 15,59.35 Z" id="Shape" fill="#3687C6"></path>
                <path d="M15,76.56 C6.97758832,76.5655156 0.475515582,83.0675883 0.47,91.09 L0.47,96.48 L29.47,96.48 L29.47,91.09 C29.4940079,87.2394988 27.9791354,83.5388894 25.2620061,80.8104936 C22.5448768,78.0820977 18.8505675,76.5519253 15,76.56 L15,76.56 Z M26.52,93.48 L3.44,93.48 L3.44,91.08 C3.79921773,84.9918136 8.84122543,80.2385278 14.94,80.2385278 C21.0387746,80.2385278 26.0807823,84.9918136 26.44,91.08 L26.44,93.48 L26.52,93.48 Z" id="Shape" fill="#3687C6"></path>
            </g>
        </g>
    </g>
</svg>