<?xml version="1.0" encoding="UTF-8"?>
<svg width="109px" height="79px" viewBox="0 0 109 79" version="1.1" xmlns="http://www.w3.org/2000/svg" xmlns:xlink="http://www.w3.org/1999/xlink">
    <!-- Generator: Sketch 47.1 (45422) - http://www.bohemiancoding.com/sketch -->
    <title> icon-16</title>
    <desc>Created with Sketch.</desc>
    <defs></defs>
    <g id="Page-1" stroke="none" stroke-width="1" fill="none" fill-rule="evenodd">
        <g id="Asset-1icons" transform="translate(-1801.000000, -907.000000)" fill-rule="nonzero" fill="#3687C6">
            <g id="icon-16" transform="translate(1801.000000, 907.000000)">
                <path d="M101.6,24.37 L64,24.37 C59.619202,9.09584579 44.8306552,-0.766360171 29.0459701,1.05980955 C13.261285,2.88597927 1.11521806,15.8643181 0.337673424,31.7352539 C-0.439871212,47.6061897 10.379412,61.7096408 25.91,65.07 L33.91,73.07 C34.9128351,74.0793808 36.4258275,74.3834843 37.7407867,73.8399678 C39.0557459,73.2964513 39.9124898,72.0128569 39.91,70.59 L39.91,65 C41.214904,64.709389 42.5006712,64.3386872 43.76,63.89 L43.76,64.11 C43.7655081,68.0455065 46.9544935,71.2344919 50.89,71.24 L62.89,71.24 L69.27,77.62 C70.1286598,78.4466281 71.3952282,78.6865397 72.4967165,78.2312 C73.5982049,77.7758603 74.3256658,76.7116453 74.35,75.52 L74.35,71.24 L101.63,71.24 C105.565506,71.2344919 108.754492,68.0455065 108.76,64.11 L108.76,31.5 C108.757353,29.6046174 108.001189,27.7880641 106.658139,26.4506415 C105.315089,25.1132189 103.495377,24.364689 101.6,24.37 L101.6,24.37 Z M37.92,61.93 C37.1109902,62.0750411 36.5216054,62.7780929 36.52,63.6 L36.52,70.6 C36.5219227,70.6458978 36.4951208,70.6881572 36.4527827,70.7059838 C36.4104446,70.7238104 36.3614868,70.7134497 36.33,70.68 L28,62.3 C27.7616954,62.0642444 27.4590101,61.9042039 27.13,61.84 C13.1032247,59.0118933 3.21393571,46.4058822 3.80641888,32.1091142 C4.39890204,17.8123461 15.2973203,6.06781413 29.51,4.41 C30.6256616,4.28501908 31.7473609,4.22158965 32.87,4.22 C40.0200803,4.19754904 46.9221435,6.83929947 52.23,11.63 C60.5152943,19.0425565 63.8474612,30.5313395 60.8141277,41.2267116 C57.7807942,51.9220838 48.9132136,59.9508747 37.97,61.91 L37.92,61.93 Z M105.34,64.1 C105.34,66.165545 103.665545,67.84 101.6,67.84 L72.6,67.84 C71.6611159,67.84 70.9,68.6011159 70.9,69.54 L70.9,74.54 L64.74,68.38 C64.422039,68.0609342 63.9904453,67.8811035 63.54,67.88 L50.9,67.88 C48.834455,67.88 47.16,66.205545 47.16,64.14 L47.16,62.48 C60.0854334,56.1172201 67.2660124,41.9922922 64.79,27.8 L101.6,27.8 C103.665545,27.8 105.34,29.474455 105.34,31.54 L105.34,64.1 Z" id="Shape"></path>
                <path d="M93.16,37.54 L76.25,54.45 L68.4,46.6 C67.7272387,46.0021124 66.7050557,46.0322026 66.0686292,46.6686292 C65.4322026,47.3050557 65.4021124,48.3272387 66,49 L75.05,58.05 C75.7134123,58.7111207 76.7865877,58.7111207 77.45,58.05 L95.56,39.94 C96.0318422,39.5206706 96.2324857,38.8744208 96.0811003,38.2615957 C95.9297149,37.6487705 95.4512295,37.1702851 94.8384043,37.0188997 C94.2255792,36.8675143 93.5793294,37.0681578 93.16,37.54 L93.16,37.54 Z" id="Shape"></path>
                <path d="M32.79,46.1 L32.79,46.1 C31.8511159,46.1 31.09,46.8611159 31.09,47.8 L31.09,47.8 C31.09,48.7388841 31.8511159,49.5 32.79,49.5 L32.79,49.5 C33.7288841,49.5 34.49,48.7388841 34.49,47.8 L34.49,47.8 C34.49,46.8611159 33.7288841,46.1 32.79,46.1 Z" id="Shape"></path>
                <path d="M32.79,17.13 C29.9328082,17.1220326 27.1897644,18.2507811 25.1656685,20.2673733 C23.1415727,22.2839656 22.0026443,25.0227984 22,27.88 C22,28.8188841 22.7611159,29.58 23.7,29.58 C24.6388841,29.58 25.4,28.8188841 25.4,27.88 C25.4055085,23.8174681 28.6974681,20.5255085 32.76,20.52 C36.793505,20.5946149 40.0453851,23.846495 40.12,27.88 C40.0860519,31.1061351 37.9658665,33.9384438 34.88,34.88 C32.6183274,35.5390689 31.0649916,37.6142603 31.07,39.97 L31.07,40.51 C31.07,41.4488841 31.8311159,42.21 32.77,42.21 C33.7088841,42.21 34.47,41.4488841 34.47,40.51 L34.47,40 C34.4724035,39.1457374 35.0389249,38.3958096 35.86,38.16 C40.394063,36.775508 43.498834,32.6006853 43.52,27.86 C43.4445552,21.9544715 38.6755285,17.1854448 32.77,17.11 L32.79,17.13 Z" id="Shape"></path>
            </g>
        </g>
    </g>
</svg>